<svg width="32" height="32" viewBox="0 0 32 32" fill="none" xmlns="http://www.w3.org/2000/svg">
<path d="M28.3115 6.4924C26.431 4.05724 23.8705 2.23444 20.954 1.25456C18.0374 0.274669 14.8958 0.181704 11.9264 0.987418C8.95698 1.79313 6.29321 3.46133 4.27196 5.78104C2.25072 8.10075 0.962782 10.9678 0.571049 14.0195C0.179316 17.0712 0.701379 20.1706 2.07121 22.9256C3.44105 25.6806 5.59712 27.9675 8.26675 29.497C10.9364 31.0266 13.9996 31.7301 17.0691 31.5186C20.1386 31.3071 23.0764 30.1901 25.5111 28.3089C32.3068 23.057 33.561 13.2906 28.311 6.4924H28.3115Z" fill="#FF6C37"/>
<path d="M21.2464 10.356L14.6874 16.9671L12.8339 15.0615C19.2893 8.60602 19.9373 9.18935 21.2469 10.356H21.2464Z" fill="#1E2235"/>
<path d="M14.6874 17.1479C14.6293 17.1465 14.5738 17.1234 14.5318 17.0832L12.6652 15.2166C12.6232 15.1731 12.5997 15.115 12.5997 15.0545C12.5997 14.994 12.6232 14.9359 12.6652 14.8924C19.0298 8.52776 19.8985 8.82574 21.402 10.1868C21.4272 10.207 21.4473 10.2327 21.4608 10.262C21.4743 10.2913 21.4808 10.3233 21.4798 10.3555C21.4895 10.4187 21.4652 10.4834 21.4151 10.5242L14.8561 17.0837C14.8101 17.1259 14.7498 17.149 14.6874 17.1484V17.1479ZM13.1576 15.061L14.6874 16.5908L20.9096 10.3686C20.6947 10.0994 20.3882 9.91882 20.0485 9.86143C19.7089 9.80403 19.3601 9.87385 19.0687 10.0575C17.9409 10.5631 16.1263 12.1055 13.1576 15.061Z" fill="#FF6C37"/>
<path d="M16.5671 18.7948L14.7783 16.967L21.3373 10.4853C23.1005 12.2095 20.4818 15.0872 16.5671 18.7943V18.7948Z" fill="#1E2235"/>
<path d="M16.5672 19.0281C16.5098 19.0236 16.4553 19.0009 16.4116 18.9635L14.5839 17.1746C14.5565 17.1081 14.5565 17.0335 14.5839 16.967C14.5644 16.9125 14.5644 16.8529 14.5839 16.7983L21.1429 10.2393C21.1885 10.1965 21.2488 10.1726 21.3114 10.1726C21.3739 10.1726 21.4342 10.1965 21.4798 10.2393C21.6922 10.4348 21.86 10.6738 21.9718 10.9399C22.0836 11.2061 22.1368 11.4932 22.1278 11.7817C22.1278 13.5317 20.1313 15.7352 16.7354 18.9503C16.69 18.9952 16.6303 19.0228 16.5667 19.0281H16.5672ZM15.1152 16.967L16.5798 18.4312C19.1722 15.9812 21.6485 13.4535 21.6611 11.7424C21.6752 11.3796 21.5553 11.0244 21.3242 10.7444L15.1152 16.967Z" fill="#FF6C37"/>
<path d="M12.8854 15.1004L14.1819 16.3969C14.1901 16.4042 14.1968 16.4131 14.2013 16.4232C14.2058 16.4332 14.2082 16.4442 14.2082 16.4552C14.2082 16.4662 14.2058 16.4771 14.2013 16.4872C14.1968 16.4972 14.1901 16.5062 14.1819 16.5135L11.4465 17.0968C11.3913 17.1088 11.3337 17.1023 11.2825 17.0785C11.2313 17.0546 11.1893 17.0147 11.1629 16.9648C11.1365 16.9148 11.1271 16.8577 11.1362 16.8019C11.1452 16.7462 11.1723 16.6949 11.2132 16.6559L12.8076 15.0746C12.8076 15.0746 12.8596 15.0746 12.8854 15.1004Z" fill="#1E2235"/>
<path d="M11.3819 17.3559C11.2954 17.3548 11.2107 17.3316 11.1358 17.2884C11.061 17.2453 10.9984 17.1837 10.9541 17.1094C10.9042 17.0154 10.8862 16.9078 10.9025 16.8027C10.9189 16.6975 10.9689 16.6005 11.045 16.5261L12.6263 14.9317C12.6833 14.8807 12.7571 14.8525 12.8336 14.8525C12.9101 14.8525 12.9839 14.8807 13.0409 14.9317L14.3374 16.2281C14.4142 16.3011 14.4443 16.4114 14.4152 16.5135C14.386 16.6156 14.3004 16.6967 14.1949 16.721L11.4596 17.3044L11.3819 17.3559ZM12.8339 15.3857L11.3692 16.8504L13.7934 16.3317L12.8339 15.3857Z" fill="#FF6C37"/>
<path d="M24.7338 6.7131C23.7956 5.80797 22.3217 5.77005 21.3378 6.62414C20.3539 7.47823 20.1857 8.94433 20.9518 9.99918C21.7179 11.054 23.1622 11.3496 24.2803 10.6797L22.5171 8.91662L24.7338 6.7131Z" fill="#1E2235"/>
<path d="M22.9838 11.2757C22.4448 11.2688 21.9197 11.1034 21.474 10.8002C21.0283 10.497 20.6817 10.0693 20.4774 9.57046C20.2732 9.072 20.2197 8.52461 20.3233 7.99603C20.427 7.46744 20.6834 6.98085 21.0607 6.59645C21.5797 6.087 22.2779 5.80157 23.0052 5.80157C23.7324 5.80157 24.4306 6.087 24.9496 6.59645C24.9992 6.63826 25.0274 6.69999 25.0274 6.76513C25.0273 6.79718 25.0203 6.82883 25.0069 6.85793C24.9934 6.88703 24.9739 6.91291 24.9496 6.93381L22.8496 8.91713L24.4441 10.4858C24.4699 10.5105 24.4893 10.5411 24.5006 10.575C24.5118 10.6089 24.5146 10.645 24.5087 10.6802C24.5049 10.7142 24.4936 10.747 24.4757 10.7761C24.4578 10.8053 24.4338 10.8301 24.4052 10.8489C23.9768 11.1167 23.4844 11.2644 22.9794 11.2767L22.9838 11.2757ZM22.9838 6.24597C22.0602 6.25083 21.2338 6.80645 20.8872 7.65568C20.5406 8.50491 20.7292 9.48247 21.3767 10.1348C21.6988 10.4588 22.1112 10.6779 22.5599 10.7635C23.0086 10.8491 23.4727 10.7972 23.8914 10.6146L22.3616 9.08484C22.3373 9.06539 22.3176 9.04072 22.3041 9.01266C22.2906 8.9846 22.2836 8.95386 22.2836 8.92272C22.2836 8.89158 22.2906 8.86084 22.3041 8.83278C22.3176 8.80472 22.3373 8.78005 22.3616 8.7606L24.3838 6.72527C23.9818 6.41719 23.4903 6.24873 22.9838 6.24548V6.24597Z" fill="#FF6C37"/>
<path d="M24.7726 6.75195L22.556 8.95547L24.3191 10.7186C24.4966 10.6167 24.6618 10.4949 24.8115 10.3555C25.2736 9.86703 25.5279 9.21817 25.5206 8.54584C25.5133 7.87351 25.2452 7.23029 24.7726 6.75195Z" fill="#1E2235"/>
<path d="M24.2797 10.9131C24.2506 10.9146 24.2215 10.9096 24.1946 10.8985C24.1677 10.8873 24.1436 10.8702 24.1242 10.8484L22.3611 9.08529C22.3368 9.06585 22.3171 9.04118 22.3036 9.01311C22.2901 8.98505 22.2831 8.95431 22.2831 8.92317C22.2831 8.89204 22.2901 8.8613 22.3036 8.83323C22.3171 8.80517 22.3368 8.7805 22.3611 8.76106L24.5646 6.59642C24.5859 6.56433 24.6148 6.53801 24.6487 6.5198C24.6826 6.50159 24.7205 6.49207 24.7591 6.49207C24.7976 6.49207 24.8355 6.50159 24.8694 6.5198C24.9033 6.53801 24.9322 6.56433 24.9535 6.59642C25.2122 6.84988 25.4177 7.15241 25.558 7.48629C25.6983 7.82017 25.7706 8.17869 25.7706 8.54085C25.7706 8.90301 25.6983 9.26153 25.558 9.59541C25.4177 9.92929 25.2122 10.2318 24.9535 10.4853C24.8009 10.6471 24.6263 10.7867 24.4348 10.8999C24.3866 10.9242 24.3309 10.9289 24.2793 10.9131H24.2797ZM22.854 8.9171L24.3186 10.3817C24.4194 10.3111 24.5148 10.2331 24.604 10.1484C25.0345 9.71902 25.277 9.13628 25.2782 8.52821C25.2792 7.98403 25.0809 7.45834 24.7206 7.05044L22.854 8.9171Z" fill="#FF6C37"/>
<path d="M21.5187 10.6282C21.3431 10.4634 21.1113 10.3716 20.8704 10.3716C20.6296 10.3716 20.3978 10.4634 20.2222 10.6282L14.3505 16.4868L15.3227 17.4722L21.5318 12.0277C21.6265 11.937 21.7016 11.8278 21.7525 11.7069C21.8034 11.5861 21.829 11.4561 21.8278 11.3249C21.8266 11.1938 21.7985 11.0642 21.7454 10.9444C21.6922 10.8245 21.615 10.7167 21.5187 10.6277V10.6282Z" fill="#1E2235"/>
<path d="M15.2707 17.7059C15.2126 17.7045 15.1572 17.6815 15.1152 17.6413L14.1298 16.6559C14.0878 16.6124 14.0643 16.5543 14.0643 16.4938C14.0643 16.4333 14.0878 16.3752 14.1298 16.3317L20.002 10.4853C20.1711 10.3164 20.3871 10.2021 20.622 10.1575C20.8568 10.1128 21.0996 10.1396 21.319 10.2346C21.5384 10.3296 21.7242 10.4883 21.8522 10.6902C21.9803 10.892 22.0448 11.1277 22.0373 11.3666C22.0306 11.5288 21.9916 11.688 21.9225 11.8349C21.8535 11.9818 21.7559 12.1135 21.6353 12.2222L15.4263 17.6666C15.3811 17.6985 15.3256 17.7124 15.2707 17.7054V17.7059ZM14.5839 16.4868L15.2318 17.1479L21.3242 11.8459C21.4749 11.7147 21.5648 11.527 21.5707 11.3272C21.5765 11.1274 21.4978 10.932 21.3505 10.7959C21.2144 10.6605 21.0303 10.5844 20.8383 10.5844C20.6464 10.5844 20.4623 10.6605 20.3262 10.7959L14.5839 16.4868Z" fill="#FF6C37"/>
<path d="M9.80057 23.163C9.78399 23.1855 9.77504 23.2128 9.77504 23.2407C9.77504 23.2687 9.78399 23.296 9.80057 23.3185L10.0597 24.4463C10.07 24.5127 10.0602 24.5806 10.0314 24.6413C10.0026 24.702 9.95624 24.7526 9.89828 24.7866C9.84052 24.8204 9.77354 24.8349 9.70697 24.8282C9.6404 24.8215 9.57769 24.7938 9.52786 24.7491L7.75212 23.038L13.2874 17.459H15.2061L16.5025 18.7554C14.4802 20.5236 12.2252 22.0066 9.80057 23.163Z" fill="#1E2235"/>
<path d="M9.68392 25.0685C9.53711 25.0656 9.39226 25.0053 9.29503 24.8998L7.59706 23.2018C7.57274 23.1824 7.55311 23.1577 7.53962 23.1296C7.52612 23.1016 7.51912 23.0708 7.51912 23.0397C7.51912 23.0086 7.52612 22.9778 7.53962 22.9498C7.55311 22.9217 7.57274 22.897 7.59706 22.8776L13.1708 17.2908C13.202 17.2576 13.2428 17.235 13.2874 17.2261H15.2187C15.2691 17.2083 15.324 17.2083 15.3743 17.2261L16.6707 18.5226C16.6954 18.5453 16.7141 18.5737 16.7254 18.6052C16.7367 18.6368 16.7401 18.6707 16.7354 18.7039C16.7363 18.7361 16.7298 18.7681 16.7163 18.7973C16.7028 18.8266 16.6827 18.8523 16.6576 18.8726L16.5541 18.9635C14.5236 20.6562 12.2896 22.0889 9.90412 23.2281L10.1506 24.2781C10.1696 24.3591 10.1704 24.4433 10.1527 24.5246C10.1351 24.6059 10.0995 24.6823 10.0486 24.7481C9.99767 24.8139 9.93271 24.8675 9.85844 24.905C9.78416 24.9426 9.70245 24.963 9.61927 24.9649L9.68392 25.0685ZM8.10261 23.0331L9.63191 24.5756C9.64615 24.5883 9.66458 24.5953 9.68368 24.5953C9.70277 24.5953 9.7212 24.5883 9.73545 24.5756C9.74498 24.5623 9.75011 24.5464 9.75011 24.5301C9.75011 24.5138 9.74498 24.4979 9.73545 24.4847L9.47635 23.3569C9.45593 23.276 9.46414 23.1904 9.49958 23.1149C9.53502 23.0393 9.59551 22.9783 9.67079 22.9422C11.9922 21.8182 14.1685 20.4166 16.1521 18.768L15.0889 17.7049H13.3521L8.10261 23.0331Z" fill="#FF6C37"/>
<path d="M6.41726 24.3685L7.71371 23.072L9.71015 25.0685L6.53441 24.8482C6.47989 24.844 6.42811 24.8226 6.38646 24.7871C6.34481 24.7517 6.31542 24.704 6.30248 24.6509C6.28955 24.5977 6.29373 24.5418 6.31443 24.4912C6.33513 24.4406 6.37129 24.3978 6.41775 24.3689L6.41726 24.3685Z" fill="#1E2235"/>
<path d="M9.74855 25.2629L6.58546 25.0427C6.39783 25.0252 6.23644 24.8969 6.17033 24.7253C6.10422 24.5537 6.14456 24.35 6.27435 24.2129L7.5708 22.9165C7.6143 22.8744 7.67242 22.851 7.73291 22.851C7.7934 22.851 7.85153 22.8744 7.89503 22.9165L9.87834 24.8998C9.9058 24.9374 9.92059 24.9828 9.92059 25.0293C9.92059 25.0759 9.9058 25.1213 9.87834 25.1589C9.84835 25.2074 9.80248 25.244 9.74855 25.2624V25.2629ZM6.58546 24.5372L9.17786 24.7058L7.75211 23.3705L6.58546 24.5372Z" fill="#FF6C37"/>
<path d="M15.3874 17.6155L12.7687 18.0175L14.2854 16.514L15.3874 17.6155Z" fill="#1E2235"/>
<path d="M12.7687 18.263C12.7252 18.2641 12.6823 18.2524 12.6454 18.2294C12.6085 18.2063 12.5792 18.1728 12.5612 18.1332C12.5336 18.0956 12.5187 18.0503 12.5187 18.0037C12.5187 17.957 12.5336 17.9117 12.5612 17.8741L14.0647 16.3574C14.1103 16.3146 14.1705 16.2907 14.2331 16.2907C14.2957 16.2907 14.3559 16.3146 14.4015 16.3574L15.504 17.459C15.526 17.4939 15.5377 17.5343 15.5377 17.5756C15.5377 17.6169 15.526 17.6574 15.504 17.6923C15.4932 17.7349 15.4704 17.7734 15.4382 17.8033C15.406 17.8333 15.3659 17.8533 15.3227 17.861L12.7303 18.263H12.7687ZM14.2854 16.8499L13.443 17.6923L14.8949 17.4721L14.2854 16.8499Z" fill="#FF6C37"/>
<path d="M15.3874 17.6145L13.5596 17.8479C13.5107 17.859 13.4595 17.854 13.4137 17.8337C13.3678 17.8135 13.3297 17.7789 13.3049 17.7353C13.2802 17.6916 13.2702 17.6412 13.2765 17.5914C13.2827 17.5417 13.3047 17.4952 13.3394 17.459L14.2859 16.5125L15.3874 17.6145Z" fill="#1E2235"/>
<path d="M13.5076 18.0948C13.4229 18.094 13.3399 18.0708 13.2671 18.0275C13.1942 17.9842 13.1342 17.9224 13.093 17.8483C13.0435 17.7596 13.0243 17.6571 13.0383 17.5565C13.0524 17.4559 13.0989 17.3626 13.1708 17.2908L14.1172 16.3443C14.1628 16.3015 14.223 16.2776 14.2856 16.2776C14.3482 16.2776 14.4085 16.3015 14.4541 16.3443L15.5561 17.4463C15.5889 17.4774 15.6119 17.5173 15.6225 17.5612C15.633 17.6051 15.6306 17.6511 15.6155 17.6936C15.6005 17.7362 15.5734 17.7734 15.5375 17.8009C15.5017 17.8284 15.4587 17.8448 15.4136 17.8483L13.599 18.0817L13.5076 18.0948ZM13.5076 17.615L14.8818 17.4463L14.2728 16.8372L13.495 17.615H13.5076ZM24.7853 8.24284C24.7609 8.20194 24.7223 8.17142 24.6769 8.15709C24.6314 8.14275 24.5823 8.14559 24.5388 8.16507C24.5174 8.17594 24.4983 8.19101 24.4828 8.20938C24.4673 8.22775 24.4556 8.24904 24.4484 8.27201C24.434 8.31835 24.4385 8.36853 24.4611 8.41152C24.552 8.60256 24.5267 8.8286 24.3964 8.99485C24.3802 9.01087 24.3676 9.03007 24.3592 9.05124C24.3508 9.07241 24.3469 9.09509 24.3478 9.11784C24.3483 9.16343 24.3656 9.20723 24.3964 9.24082C24.4297 9.25396 24.4667 9.25396 24.5 9.24082C24.5301 9.24841 24.5618 9.24758 24.5916 9.2384C24.6213 9.22923 24.648 9.21208 24.6686 9.18881C24.7754 9.05812 24.843 8.8999 24.8636 8.73243C24.8843 8.56495 24.8571 8.39506 24.7853 8.24236V8.24284Z" fill="#FF6C37"/>
</svg>
