<svg width="32" height="32" viewBox="0 0 32 32" fill="none" xmlns="http://www.w3.org/2000/svg">
<path d="M0.740454 11.3436C0.740454 11.3436 -0.0172959 10.7974 0.892004 10.0681L3.01055 8.17373C3.01055 8.17373 3.61675 7.53595 4.25768 8.09164L23.8076 22.893V29.9906C23.8076 29.9906 23.7982 31.1052 22.3679 30.982L0.740454 11.3436Z" fill="#2489CA"/>
<path d="M5.77949 15.9187L0.740447 20.4999C0.740447 20.4999 0.22265 20.8851 0.740447 21.5734L3.08 23.7014C3.08 23.7014 3.63569 24.2981 4.45658 23.6193L9.79873 19.5685L5.77949 15.9187Z" fill="#1070B3"/>
<path d="M14.6263 15.9565L23.8677 8.89996L23.8077 1.84024C23.8077 1.84024 23.413 0.299474 22.0964 1.10143L9.79877 12.2941L14.6263 15.9565Z" fill="#0877B9"/>
<path d="M22.368 30.9915C22.9047 31.5409 23.5551 31.361 23.5551 31.361L30.7569 27.8121C31.6788 27.1838 31.5494 26.404 31.5494 26.404V5.21221C31.5494 4.2808 30.5959 3.95876 30.5959 3.95876L24.3539 0.949853C22.9899 0.106855 22.0964 1.1014 22.0964 1.1014C22.0964 1.1014 23.2457 0.274191 23.8077 1.84021V29.8612C23.8077 30.0538 23.7666 30.2433 23.6846 30.4138C23.5204 30.7453 23.1636 31.0547 22.308 30.9252L22.368 30.9915Z" fill="#3C99D4"/>
</svg>
