<?xml version="1.0" encoding="utf-8"?>
<!-- Generator: Adobe Illustrator 19.2.0, SVG Export Plug-In . SVG Version: 6.00 Build 0)  -->
<svg version="1.1" id="Layer_1" xmlns="http://www.w3.org/2000/svg" xmlns:xlink="http://www.w3.org/1999/xlink" x="0px" y="0px"
	 viewBox="0 0 400 400" style="enable-background:new 0 0 400 400;" xml:space="preserve">
<style type="text/css">
	.st0{fill:none;stroke:#FFFFFF;stroke-width:9;stroke-linecap:round;stroke-linejoin:round;stroke-miterlimit:10;}
	.st1{fill:#FFFFFF;}
	
		.st2{fill:none;stroke:#FFFFFF;stroke-width:9;stroke-linecap:round;stroke-linejoin:round;stroke-miterlimit:10;stroke-dasharray:1.5,15;}
	.st3{fill:none;stroke:#FFFFFF;stroke-width:9;stroke-miterlimit:10;}
	.st4{fill:none;stroke:#FFFFFF;stroke-width:12;stroke-linecap:round;stroke-linejoin:round;stroke-miterlimit:10;}
</style>
<path class="st0" d="M199.1,172c0,0-63.9-64.7,0.8-74.8s138.5,70.7,146.8,86.6"/>
<path class="st0" d="M349.6,296.8c0,0-7.2-9.7-49.8-4.4c0,0-10.5-18.4,14.6-38.5"/>
<circle class="st0" cx="209.6" cy="183.4" r="29.7"/>
<circle class="st0" cx="282" cy="193.1" r="29.7"/>
<path class="st0" d="M238.2,191.3c0,0,6.3-6.5,14.1,1.8"/>
<path class="st0" d="M269.2,113c23.2-5.4,89.8,3.9,88.9,80.1"/>
<path class="st0" d="M351.6,217.7c0,0,16-26.7-4.8-33.8c0,0-91.6-58.7-131.2-28.9c-49.3,37.1-44.6,123.7,27.5,121.2
	c0,0,32.8-3.1,22.8,16.2c0,0-34.2,2.4-58.7,13.3c-24.5,10.8-29,49.2-29,49.2s-4,8.8,31.4,23.5"/>
<path class="st0" d="M321.7,172.5c0,0-1.8,12.3,3.5,18.5c0,0-2.5,18.8,6.3,24.6"/>
<path class="st0" d="M344.3,236.2c1.6-8.8-2.9-12.6-7.8-6.8c-4.2,4.8,5.8,15.6-11.3,12.9"/>
<path class="st0" d="M316.9,292.4c0,0,0.8,35.7-40.6,34.9c-31-0.6-26.2-32.5-26.2-32.5"/>
<path class="st0" d="M85.3,338c-4.6-11.9-1.4-34.1-7.4-45c-4.7-8.5-8.7-5.2-18.4-23.3c-5.6-10.4-6.5-13.7-9.9-22.8
	c-4.1-11-2.8-18.7,3.7-19.4c6-0.6,3.8,2.7,8.6,14.2c7.1,16.9,12.9,11.9,12.9,11.9c-9.4-28.6-9.1-41.7-2.8-45.3
	c7.5-4.2,9.3,7.7,10.2,14.5c1,6.7,5.1,21.8,5.1,21.8c-3.4-9.7-4.5-28-4.6-36.3c-0.1-12.8,11.3-15.3,10.9-4.4
	c-0.7,16.1,6.1,34.2,6.1,34.2c5.7-33.8,8-34.1,12.6-35.8s6.6,7.3,4.5,17.8c-2.3,10.9-5.4,34.7,0.4,38.4c5.8,3.7,5.7-9.2,16.8-20.4
	c7.4-7.5,16.2,0,6.8,14.6c-10.9,17.1-8.3,23.2-13.7,32.9c-4.6,8.2-12.5,12.3-12.5,12.3s3.9,49.8,22.5,67.9"/>
<circle class="st1" cx="216.9" cy="187.7" r="7.3"/>
<circle class="st1" cx="286.9" cy="194.9" r="7.3"/>
<path class="st0" d="M178.1,175.8c0,0-12-4.5-12,0s20.3,11.8,20.3,11.8"/>
<path class="st0" d="M225.7,224.8c12,3.6,24.6-0.6,26.6,2.4c2,3-3.5,19.2-17.1,18C221.6,243.9,225.7,224.8,225.7,224.8z"/>
<path class="st2" d="M313.6,238.1c-9.7,10.8-15.8,35.2-70.5,33.3c-22.9-0.8-30-4.1-43.1-15.4"/>
<circle class="st3" cx="199.9" cy="199.7" r="179.3"/>
<path class="st0" d="M329.7,219.3c33.2-15.9,31,21.6,15.4,34.7c-11.6,9.7-28.3,7.2-28.3-3.1"/>
<polyline class="st0" points="314.5,199.7 324.6,201.8 342.5,213.1 "/>
<path class="st4" d="M175.7,375.9c0,0,2.4-5.8,4.2-10.1"/>
</svg>
